<svg class="svg-slider" xmlns="http://www.w3.org/2000/svg" version="1.1" xmlns:xlink="http://www.w3.org/1999/xlink" xmlns:svgjs="http://svgjs.dev/svgjs" viewBox="0 0 800 400"><path class="path" d="M0,220.6278076171875C12.406576792399088,214.49925740559897,58.89387003580729,201.19581985473633,74.43946075439453,183.85650634765625C89.98505147298177,166.51719284057617,80.11958185831706,131.83856455485025,93.27354431152344,116.59192657470703C106.42750676472981,101.3452885945638,129.7458953857422,90.43348058064778,153.3632354736328,92.37667846679688C176.98057556152344,94.31987635294597,210.31390635172525,110.61284637451172,234.9775848388672,128.25111389160156C259.6412633260091,145.8893814086914,276.5321528116862,179.22272491455078,301.3453063964844,198.20628356933594C326.15845998128253,217.1898422241211,352.16741943359375,244.84305063883463,383.85650634765625,242.1524658203125C415.54559326171875,239.46188100179037,457.9970194498698,193.7219670613607,491.4798278808594,182.06277465820312C524.962636311849,170.40358225504556,555.9043324788412,168.3109130859375,584.7533569335938,172.1973114013672C613.6023813883463,176.08370971679688,628.9984842936198,222.1225700378418,664.573974609375,205.38116455078125C700.1494649251302,188.6397590637207,775.9342447916666,94.02092615763347,798.206298828125,71.7488784790039" fill="none" stroke-width="7" stroke="#445670" stroke-linecap="round"></path><circle r="25" fill="#FFFFFF" cx="57%" cy="50%" stroke="#597193"/><defs><linearGradient id="SvgjsLinearGradient1002"><stop stop-color="hsl(37, 99%, 67%)" offset="0"></stop><stop stop-color="hsl(316, 73%, 52%)" offset="1"></stop></linearGradient></defs></svg>