<svg class="svg-slider" xmlns="http://www.w3.org/2000/svg" version="1.1" xmlns:xlink="http://www.w3.org/1999/xlink" xmlns:svgjs="http://svgjs.dev/svgjs" viewBox="0 0 800 400"><path class="path" d="M0,187.44393920898438C12.257100423177084,187.29446411132812,52.61584599812825,188.63976287841797,73.5426025390625,186.54708862304688C94.46935907999675,184.45441436767578,109.26756540934245,175.18684895833334,125.56053924560547,174.8878936767578C141.8535130818685,174.58893839518228,143.94618606567383,186.9955088297526,171.30044555664062,184.75335693359375C198.65470504760742,182.5112050374349,256.8011932373047,175.18685022989908,289.68609619140625,161.4349822998047C322.5709991455078,147.6831143697103,347.68310546875,98.65470631917317,368.60986328125,102.24214935302734C389.53662109375,105.82959238688152,395.66517639160156,163.52765274047852,415.24664306640625,182.9596405029297C434.82810974121094,202.39162826538086,462.33184814453125,217.3393071492513,486.0986633300781,218.83407592773438C509.865478515625,220.32884470621744,533.7817637125651,200.44843292236328,557.8475341796875,191.92825317382812C581.9133046468099,183.40807342529297,613.0044962565104,171.74887339274088,630.4932861328125,167.71299743652344C647.9820760091146,163.677121480306,644.2451477050781,168.60985819498697,662.7802734375,167.71299743652344C681.3153991699219,166.8161366780599,719.4319966634115,163.6771240234375,741.7040405273438,162.3318328857422C763.976084391276,160.98654174804688,787.2944539388021,160.08968098958334,796.4125366210938,159.64125061035156" fill="none" stroke-width="8" stroke="#445670" stroke-linecap="round"></path><circle r="25" fill="#FFFFFF" cx="46%" cy="28%" stroke="#597193"/><defs><linearGradient id="SvgjsLinearGradient1006"><stop stop-color="hsl(37, 99%, 67%)" offset="0"></stop><stop stop-color="hsl(316, 73%, 52%)" offset="1"></stop></linearGradient></defs></svg>